<svg xmlns="http://www.w3.org/2000/svg" width="500" height="500" style="width:100%;height:100%"><defs><clipPath id="a"><path d="M0 0h500v500H0z"/></clipPath><clipPath id="b"><path d="M0 0h500v500H0z"/></clipPath></defs><g clip-path="url(#a)"><g clip-path="url(#b)" transform="rotate(45.892 202.197 271.64) scale(.89)" display="block"><path stroke-linecap="round" stroke-linejoin="round" stroke="#FFF" stroke-width="16.2316" d="M318.221 318.79c-.396-.37-.785-.748-1.17-1.133L181.726 182.332c-.24-.24-.475-.479-.71-.722" fill="none" display="block"/><path stroke-linecap="round" stroke-linejoin="round" stroke="#FFF" stroke-width="16.2316" d="M321.326 180.57c-.374.397-.756.79-1.145 1.179L183.948 317.982c-.24.24-.483.479-.726.714" fill="none" display="block"/></g><path stroke-linecap="round" stroke-linejoin="round" stroke="#FFF" stroke-width="12.46" d="M261.512 434.55c42.49-2.287 84.379-19.336 117.331-51.278 0 0 0 0 0 0 39.538-38.326 58.046-90.175 55.303-141.156M69.078 261.916c2.287 42.49 19.336 84.379 51.278 117.331 0 0 0 0 0 0 38.326 39.538 90.175 58.046 141.156 55.303M241.712 69.482c-42.49 2.287-84.379 19.336-117.331 51.278 0 0 0 0 0 0-39.538 38.326-58.046 90.175-55.303 141.156" fill="none" display="block"/><path stroke-linecap="round" stroke-linejoin="round" stroke="#FFF" stroke-width="12.46" d="M434.146 242.116c-2.287-42.49-19.336-84.379-51.278-117.331 0 0 0 0 0 0-38.326-39.538-90.175-58.046-141.156-55.303" fill="none" display="block"/></g></svg>