<svg xmlns="http://www.w3.org/2000/svg" xmlns:xlink="http://www.w3.org/1999/xlink" viewBox="0 0 100 125" version="1.1" x="0px" y="0px"><title>Delete 1.1</title><desc>Created with Sketch.</desc><g stroke="none" stroke-width="1" fill="none" fill-rule="evenodd"><g stroke="#000000"><path d="M72,30 L70.1662235,74.0106363 C70.0744208,76.213901 68.2035752,78 65.9999745,78 L34.0000255,78 C31.7908724,78 29.9252478,76.2059475 29.8337765,74.0106363 L28,30" stroke-linecap="round" stroke-linejoin="round"/><path d="M50,36 L50,70" stroke-linecap="round" stroke-linejoin="round"/><path d="M39,36 L40,70" stroke-linecap="round" stroke-linejoin="round"/><path d="M61,36 L60,70" stroke-linecap="round" stroke-linejoin="round"/><path d="M25,25 L75,25" stroke-linecap="round" stroke-linejoin="round"/><path d="M40,25 L41.070261,22.3243475 C41.5837417,21.0406458 43.1250889,20 44.5,20 L55.5,20 C56.8807119,20 58.4144013,21.0360032 58.929739,22.3243475 L60,25"/></g></g><text x="0" y="115" fill="#000000" font-size="5px" font-weight="bold" font-family="'Helvetica Neue', Helvetica, Arial-Unicode, Arial, Sans-serif">Created by Landan Lloyd</text><text x="0" y="120" fill="#000000" font-size="5px" font-weight="bold" font-family="'Helvetica Neue', Helvetica, Arial-Unicode, Arial, Sans-serif">from the Noun Project</text></svg>